<svg width="60" height="16" viewBox="0 0 60 16" fill="none" xmlns="http://www.w3.org/2000/svg">
<path d="M10.2965 4.85186V14.8646H7.66174V13.3917C7.14129 14.3847 6.10039 15.0798 4.66915 15.0798C2.50603 15.0798 0.960938 13.8551 0.960938 11.2071V4.85186H3.61198V10.5285C3.61198 11.9518 4.23002 12.7462 5.4173 12.7462C6.83227 12.7462 7.66174 11.687 7.66174 9.99891V4.85186H10.2965ZM28.8213 9.89961C28.8213 6.73856 30.9194 4.6367 33.6029 4.6367C35.0504 4.6367 36.2215 5.23251 36.7582 6.22551V4.85186H39.4092V14.8646H36.8558V13.3917C36.1564 14.484 35.0667 15.0798 33.6355 15.0798C30.8868 15.0798 28.8213 13.0276 28.8213 9.89961ZM36.8558 9.89961C36.8558 7.99636 35.5221 6.97026 34.1397 6.97026C32.7897 6.97026 31.4886 8.02946 31.4886 9.89961C31.4886 11.7367 32.7897 12.7793 34.1397 12.7793C35.5221 12.7793 36.8558 11.7698 36.8558 9.89961ZM50.4525 14.8646H47.3949L44.6788 10.843L43.6541 11.9187V14.8481H41.0031V0.0854492H43.6541V8.57561L46.972 4.85186H50.2248L46.4028 8.95626L50.4525 14.8646ZM57.7388 11.0416L59.9995 11.9518C59.3327 13.8551 57.7714 15.0798 55.4131 15.0798C52.3879 15.0798 50.2086 13.011 50.2086 9.80031C50.2086 6.95371 52.1603 4.65325 55.104 4.65325C57.8202 4.65325 59.9345 7.06956 59.6417 9.80031C59.6255 9.99891 59.5929 10.181 59.5441 10.3796H52.8596C52.9084 11.9684 54.1282 12.7628 55.4619 12.7628C56.7142 12.7628 57.4461 12.1008 57.7388 11.0416ZM52.8596 8.57561H57.072C57.072 8.57561 57.0883 8.52596 57.0883 8.49286C57.0883 7.48331 56.2751 6.82131 55.0878 6.82131C54.0469 6.82131 53.1036 7.45021 52.8596 8.57561ZM25.1781 0.0854492L19.9086 8.32736L14.639 0.0854492H12.2807V14.8812H15.0456V5.77866L19.4695 12.4318H20.3315L24.7553 5.77866V14.8812H27.5202V0.0854492H25.1781Z" fill="black"/>
</svg>
