<svg width="56" height="61" viewBox="0 0 56 61" fill="none" xmlns="http://www.w3.org/2000/svg">
<path d="M27.8192 44.7834C36.0685 44.7834 42.756 38.0959 42.756 29.8465C42.756 21.5971 36.0685 14.9097 27.8192 14.9097C19.5698 14.9097 12.8823 21.5971 12.8823 29.8465C12.8823 38.0959 19.5698 44.7834 27.8192 44.7834Z" stroke="#EE9EAB" stroke-width="3" stroke-miterlimit="10"/>
<path d="M24.5119 2L4.13383 13.7361C2.85353 14.4829 2 15.8699 2 17.4703V40.6224" stroke="#EE9EAB" stroke-width="3" stroke-miterlimit="10" stroke-linejoin="round"/>
<path d="M31.2334 2L51.6115 13.7361C52.8918 14.4829 53.7453 15.8699 53.7453 17.4703V40.6224" stroke="#EE9EAB" stroke-width="3" stroke-miterlimit="10" stroke-linejoin="round"/>
<path d="M5.41406 46.7038L25.7922 58.4399C27.0725 59.1867 28.7795 59.1867 30.0598 58.4399L50.0112 46.9172" stroke="#EE9EAB" stroke-width="3" stroke-miterlimit="10" stroke-linejoin="round"/>
</svg>
