<svg width="58" height="55" viewBox="0 0 58 55" fill="none" xmlns="http://www.w3.org/2000/svg">
<path d="M18.1064 20.6705V6.41905C18.1064 3.98857 20.095 2 22.5255 2H40.5331C42.9636 2 44.9522 3.98857 44.9522 6.41905V11.3905" stroke="#EE9EAB" stroke-width="3" stroke-miterlimit="10" stroke-linejoin="round"/>
<path d="M4.51807 27.9619H17.7752V41.2191" stroke="#EE9EAB" stroke-width="3" stroke-miterlimit="10" stroke-linecap="square" stroke-linejoin="round"/>
<path d="M44.9524 33.4858C51.0539 33.4858 56 28.5396 56 22.4381C56 16.3367 51.0539 11.3905 44.9524 11.3905C38.851 11.3905 33.9048 16.3367 33.9048 22.4381C33.9048 28.5396 38.851 33.4858 44.9524 33.4858Z" stroke="#EE9EAB" stroke-width="3" stroke-miterlimit="10"/>
<path d="M16.118 29.9505L3.96561 42.1029C-0.232487 46.301 2.75038 53.3715 8.60562 53.3715H48.598" stroke="#EE9EAB" stroke-width="3" stroke-miterlimit="10" stroke-linejoin="round"/>
<path d="M44.9524 34.0381V36.8001C44.9524 39.2305 42.9638 41.2191 40.5333 41.2191H24.8457" stroke="#EE9EAB" stroke-width="3" stroke-miterlimit="10" stroke-linejoin="round"/>
</svg>
