<svg width="59" height="54" viewBox="0 0 59 54" fill="none" xmlns="http://www.w3.org/2000/svg">
<path d="M25.2075 51.2C26.4075 51.4 27.6075 51.5 28.8075 51.5C31.8075 51.5 34.7075 50.8 37.3075 49.6" stroke="#EE9EAB" stroke-width="3" stroke-miterlimit="10"/>
<path d="M43.2075 17.6C46.1075 20.6 48.1075 24.5 48.7075 28.8" stroke="#EE9EAB" stroke-width="3" stroke-miterlimit="10"/>
<path d="M14.5073 17.6C11.6073 20.6 9.60732 24.5 9.00732 28.8" stroke="#EE9EAB" stroke-width="3" stroke-miterlimit="10"/>
<path d="M28.8071 21C34.0538 21 38.3071 16.7467 38.3071 11.5C38.3071 6.25329 34.0538 2 28.8071 2C23.5604 2 19.3071 6.25329 19.3071 11.5C19.3071 16.7467 23.5604 21 28.8071 21Z" stroke="#EE9EAB" stroke-width="3" stroke-miterlimit="10"/>
<path d="M17.4544 32.0924L2 36.2332L6.1408 51.6876L21.5952 47.5468L17.4544 32.0924Z" stroke="#EE9EAB" stroke-width="3" stroke-miterlimit="10" stroke-linecap="round" stroke-linejoin="round"/>
<path d="M39.1074 32.5L43.9074 50.3L56.9074 37.3L39.1074 32.5Z" stroke="#EE9EAB" stroke-width="3" stroke-miterlimit="10" stroke-linecap="round" stroke-linejoin="round"/>
</svg>
