<svg width="30" height="29" viewBox="0 0 30 29" fill="none" xmlns="http://www.w3.org/2000/svg">
<path d="M0 10.73C0 6.10249 0 3.78874 1.24622 2.20925C1.5288 1.8511 1.85267 1.5275 2.21113 1.24516C3.79194 0 6.10766 0 10.7391 0H18.2855C22.9169 0 25.2326 0 26.8134 1.24516C27.1719 1.5275 27.4958 1.8511 27.7783 2.20925C29.0246 3.78874 29.0246 6.10249 29.0246 10.73V18.27C29.0246 22.8975 29.0246 25.2113 27.7783 26.7907C27.4958 27.1489 27.1719 27.4725 26.8134 27.7548C25.2326 29 22.9169 29 18.2855 29H10.7391C6.10766 29 3.79194 29 2.21113 27.7548C1.85267 27.4725 1.5288 27.1489 1.24622 26.7907C0 25.2113 0 22.8975 0 18.27V10.73Z" fill="url(#paint0_linear)"/>
<defs>
<linearGradient id="paint0_linear" x1="14.5123" y1="0" x2="14.5123" y2="29" gradientUnits="userSpaceOnUse">
<stop stop-color="#FE5714"/>
<stop offset="1" stop-color="#E6361D"/>
</linearGradient>
</defs>
</svg>
