<svg width="22" height="19" viewBox="0 0 22 19" fill="none" xmlns="http://www.w3.org/2000/svg">
<path fill-rule="evenodd" clip-rule="evenodd" d="M10.8257 1.92644C11.7306 1.06958 12.9211 0.602051 14.3048 0.602051C15.428 0.602051 16.4341 0.907698 17.2677 1.49846C18.093 2.08331 18.6702 2.89097 19.0418 3.77806C19.7721 5.52131 19.7641 7.68227 19.2472 9.70235C18.8081 11.418 17.9475 13.1997 16.6773 14.6757C17.6156 14.9417 18.6679 14.8016 19.8439 13.9172L21.629 16.2869C19.4233 17.9456 17.0778 18.1307 15.0043 17.2173C14.7217 17.0928 14.4474 16.9495 14.1818 16.7895C12.843 17.5836 11.2605 18.068 9.43994 18.068C5.35522 18.068 2.55225 15.6243 1.2836 12.3406C0.0397722 9.12127 0.235113 5.07782 1.90862 1.46249L4.60284 2.70752C3.22546 5.6831 3.13221 8.88965 4.05285 11.2725C4.94868 13.5912 6.76325 15.1021 9.43994 15.1021C10.2866 15.1021 11.0718 14.943 11.7887 14.6575C11.2688 14.0149 10.8145 13.3084 10.4319 12.5731C9.16899 10.1465 8.68382 7.34451 9.17714 5.03946C9.42625 3.87551 9.94388 2.76135 10.8257 1.92644ZM14.2358 12.9601C15.2613 11.8666 15.9907 10.4548 16.3713 8.96766C16.782 7.36274 16.7122 5.8987 16.3035 4.9232C16.1057 4.45091 15.8441 4.12577 15.5504 3.91765C15.2651 3.71544 14.8721 3.56796 14.3048 3.56796C13.6272 3.56796 13.1834 3.78012 12.8675 4.07924C12.5284 4.40032 12.2386 4.91844 12.0799 5.65967C11.7578 7.16499 12.0559 9.26494 13.0655 11.2048C13.4119 11.8704 13.8084 12.4605 14.2358 12.9601Z" fill="white"/>
</svg>
